<svg width="165" height="39" viewBox="0 0 165 39" fill="none" xmlns="http://www.w3.org/2000/svg">
<g clip-path="url(#clip0_183_130)">
<path fill-rule="evenodd" clip-rule="evenodd" d="M3.52205 25.1292H0V13.4673H10.4879C12.9827 13.4673 15.0078 11.4421 15.0078 8.94729C15.0078 6.4525 12.9827 4.42732 10.4879 4.42732H0.0293504V0.905273H10.4879C14.9198 0.905273 18.5299 4.52516 18.5299 8.95707C18.5299 13.389 14.9198 16.9991 10.4879 16.9991H3.52205V25.1292ZM14.7828 25.1292L10.6347 19.6406C11.9848 19.6211 13.286 19.3471 14.4698 18.8677L19.1952 25.1292H14.7828Z" fill="#1D1C1B"/>
</g>
<path d="M37.0349 24.9053V14.7833H40.3739C41.0926 14.7833 41.7319 14.9046 42.2919 15.1473C42.8566 15.3853 43.2976 15.7399 43.6149 16.2113C43.9369 16.6779 44.0979 17.2566 44.0979 17.9473C44.0979 18.6239 43.9462 19.2003 43.6429 19.6763C43.3396 20.1476 42.9196 20.5069 42.3829 20.7543C41.8509 21.0016 41.2326 21.1253 40.5279 21.1253H38.1689V24.9053H37.0349ZM38.1619 20.1663H40.5069C41.2489 20.1663 41.8509 19.9633 42.3129 19.5573C42.7796 19.1513 43.0129 18.5936 43.0129 17.8843C43.0129 17.1656 42.7749 16.6266 42.2989 16.2673C41.8229 15.9079 41.1999 15.7283 40.4299 15.7283H38.1619V20.1663ZM48.1206 24.9053V14.7833H54.3436V15.7633H49.2126V19.3053H53.8746V20.2853H49.2126V23.8973L54.4976 23.9043V24.9053H48.1206ZM59.2063 14.7833C59.2296 14.7833 59.3136 14.7856 59.4583 14.7903C59.6076 14.7903 59.7896 14.7903 60.0043 14.7903C60.2236 14.7856 60.4523 14.7856 60.6903 14.7903C60.933 14.7903 61.1616 14.7926 61.3763 14.7973C62.6176 14.8113 63.6256 15.0073 64.4003 15.3853C65.175 15.7633 65.742 16.3186 66.1013 17.0513C66.4606 17.7839 66.6403 18.6916 66.6403 19.7743C66.6403 20.9129 66.4443 21.8626 66.0523 22.6233C65.665 23.3839 65.07 23.9556 64.2673 24.3383C63.4693 24.7163 62.4543 24.9053 61.2223 24.9053H59.2063V14.7833ZM60.3403 15.7493V23.9393H61.2153C62.1206 23.9393 62.8906 23.8063 63.5253 23.5403C64.1646 23.2696 64.6523 22.8333 64.9883 22.2313C65.3243 21.6246 65.4923 20.8173 65.4923 19.8093C65.4923 18.7826 65.3266 17.9753 64.9953 17.3873C64.664 16.7946 64.1833 16.3746 63.5533 16.1273C62.9233 15.8753 62.165 15.7493 61.2783 15.7493H60.3403ZM78.1276 24.9053H76.9586L75.0546 20.4183H72.1496V24.9053H71.0576V14.7833H74.8796C75.589 14.7833 76.184 14.8906 76.6646 15.1053C77.15 15.3153 77.514 15.6209 77.7566 16.0223C78.004 16.4236 78.1276 16.9089 78.1276 17.4783C78.1276 18.0289 78.025 18.4886 77.8196 18.8573C77.619 19.2213 77.3646 19.5129 77.0566 19.7323C76.7486 19.9469 76.4313 20.1079 76.1046 20.2153L78.1276 24.9053ZM74.4456 19.4803C75.267 19.4803 75.897 19.3239 76.3356 19.0113C76.779 18.6939 77.0006 18.2086 77.0006 17.5553C77.0006 16.9253 76.807 16.4609 76.4196 16.1623C76.0323 15.8589 75.491 15.7073 74.7956 15.7073H72.1496V19.4803H74.4456ZM86.2772 25.0453C85.3905 25.0453 84.6228 24.8446 83.9742 24.4433C83.3302 24.0373 82.8308 23.4493 82.4762 22.6793C82.1262 21.9093 81.9512 20.9713 81.9512 19.8653C81.9512 18.7499 82.1262 17.8049 82.4762 17.0303C82.8308 16.2509 83.3325 15.6583 83.9812 15.2523C84.6298 14.8463 85.3952 14.6433 86.2772 14.6433C87.1592 14.6433 87.9198 14.8463 88.5592 15.2523C89.2032 15.6583 89.6978 16.2486 90.0432 17.0233C90.3932 17.7979 90.5682 18.7453 90.5682 19.8653C90.5682 20.9713 90.3955 21.9093 90.0502 22.6793C89.7048 23.4493 89.2102 24.0373 88.5662 24.4433C87.9268 24.8446 87.1638 25.0453 86.2772 25.0453ZM86.2772 24.0653C86.9398 24.0653 87.4998 23.9159 87.9572 23.6173C88.4192 23.3186 88.7692 22.8589 89.0072 22.2383C89.2452 21.6176 89.3642 20.8289 89.3642 19.8723C89.3642 18.9016 89.2428 18.1036 89.0002 17.4783C88.7575 16.8483 88.4052 16.3816 87.9432 16.0783C87.4858 15.7703 86.9305 15.6163 86.2772 15.6163C85.6238 15.6163 85.0638 15.7703 84.5972 16.0783C84.1352 16.3863 83.7805 16.8553 83.5332 17.4853C83.2858 18.1153 83.1622 18.9109 83.1622 19.8723C83.1622 20.8336 83.2858 21.6246 83.5332 22.2453C83.7805 22.8613 84.1352 23.3186 84.5972 23.6173C85.0638 23.9159 85.6238 24.0653 86.2772 24.0653ZM100.514 24.9053V14.7833H101.984L105.239 23.4563L108.543 14.7833H109.999V24.9053H108.865V16.6033L105.792 24.9053H104.693L101.648 16.6873V24.9053H100.514ZM114.429 24.9053V23.4073H115.78V24.9053H114.429ZM132.775 24.9053H131.606L129.702 20.4183H126.797V24.9053H125.705V14.7833H129.527C130.236 14.7833 130.831 14.8906 131.312 15.1053C131.797 15.3153 132.161 15.6209 132.404 16.0223C132.651 16.4236 132.775 16.9089 132.775 17.4783C132.775 18.0289 132.672 18.4886 132.467 18.8573C132.266 19.2213 132.012 19.5129 131.704 19.7323C131.396 19.9469 131.078 20.1079 130.752 20.2153L132.775 24.9053ZM129.093 19.4803C129.914 19.4803 130.544 19.3239 130.983 19.0113C131.426 18.6939 131.648 18.2086 131.648 17.5553C131.648 16.9253 131.454 16.4609 131.067 16.1623C130.679 15.8589 130.138 15.7073 129.443 15.7073H126.797V19.4803H129.093ZM137.337 14.7833H138.429V24.9053H137.337V14.7833ZM138.87 11.8993H140.172L138.296 13.9363H137.428L138.87 11.8993ZM147.156 25.0453C146.27 25.0453 145.502 24.8446 144.853 24.4433C144.209 24.0373 143.71 23.4493 143.355 22.6793C143.005 21.9093 142.83 20.9713 142.83 19.8653C142.83 18.7499 143.005 17.8049 143.355 17.0303C143.71 16.2509 144.212 15.6583 144.86 15.2523C145.509 14.8463 146.274 14.6433 147.156 14.6433C148.038 14.6433 148.799 14.8463 149.438 15.2523C150.082 15.6583 150.577 16.2486 150.922 17.0233C151.272 17.7979 151.447 18.7453 151.447 19.8653C151.447 20.9713 151.275 21.9093 150.929 22.6793C150.584 23.4493 150.089 24.0373 149.445 24.4433C148.806 24.8446 148.043 25.0453 147.156 25.0453ZM147.156 24.0653C147.819 24.0653 148.379 23.9159 148.836 23.6173C149.298 23.3186 149.648 22.8589 149.886 22.2383C150.124 21.6176 150.243 20.8289 150.243 19.8723C150.243 18.9016 150.122 18.1036 149.879 17.4783C149.637 16.8483 149.284 16.3816 148.822 16.0783C148.365 15.7703 147.81 15.6163 147.156 15.6163C146.503 15.6163 145.943 15.7703 145.476 16.0783C145.014 16.3863 144.66 16.8553 144.412 17.4853C144.165 18.1153 144.041 18.9109 144.041 19.8723C144.041 20.8336 144.165 21.6246 144.412 22.2453C144.66 22.8613 145.014 23.3186 145.476 23.6173C145.943 23.9159 146.503 24.0653 147.156 24.0653ZM159.129 25.0453C158.658 25.0453 158.203 24.9869 157.764 24.8703C157.33 24.7489 156.933 24.5716 156.574 24.3383C156.219 24.1049 155.925 23.8179 155.692 23.4773C155.459 23.1319 155.307 22.7306 155.237 22.2733H156.392C156.485 22.6793 156.663 23.0199 156.924 23.2953C157.185 23.5659 157.507 23.7713 157.89 23.9113C158.273 24.0466 158.683 24.1143 159.122 24.1143C159.626 24.1143 160.074 24.0419 160.466 23.8973C160.858 23.7526 161.166 23.5473 161.39 23.2813C161.619 23.0153 161.733 22.7049 161.733 22.3503C161.733 22.0283 161.665 21.7483 161.53 21.5103C161.395 21.2723 161.196 21.0739 160.935 20.9153C160.674 20.7519 160.349 20.6236 159.962 20.5303L157.918 20.0403C157.176 19.8723 156.595 19.5853 156.175 19.1793C155.76 18.7686 155.55 18.2296 155.545 17.5623C155.545 16.9929 155.694 16.4913 155.993 16.0573C156.296 15.6186 156.712 15.2756 157.239 15.0283C157.771 14.7809 158.382 14.6573 159.073 14.6573C159.871 14.6573 160.536 14.7949 161.068 15.0703C161.605 15.3456 162.011 15.7049 162.286 16.1483C162.561 16.5916 162.699 17.0606 162.699 17.5553H161.558C161.516 17.0699 161.374 16.6849 161.131 16.4003C160.888 16.1156 160.587 15.9126 160.228 15.7913C159.873 15.6699 159.488 15.6093 159.073 15.6093C158.784 15.6093 158.497 15.6489 158.212 15.7283C157.932 15.8029 157.678 15.9173 157.449 16.0713C157.22 16.2253 157.038 16.4189 156.903 16.6523C156.768 16.8856 156.7 17.1586 156.7 17.4713C156.7 17.8539 156.831 18.1666 157.092 18.4093C157.358 18.6473 157.834 18.8549 158.52 19.0323L160.501 19.5153C160.977 19.6226 161.367 19.7766 161.67 19.9773C161.978 20.1779 162.218 20.4089 162.391 20.6703C162.564 20.9269 162.683 21.1976 162.748 21.4823C162.818 21.7669 162.853 22.0493 162.853 22.3293C162.853 22.8286 162.708 23.2836 162.419 23.6943C162.13 24.1049 161.707 24.4339 161.152 24.6813C160.597 24.9239 159.922 25.0453 159.129 25.0453Z" fill="black"/>
<defs>
<clipPath id="clip0_183_130">
<rect width="19.1952" height="24.2239" fill="white" transform="translate(0 0.905273)"/>
</clipPath>
</defs>
</svg>
